<svg xmlns="http://www.w3.org/2000/svg" width="1600" height="900" viewBox="0 0 1600 900"><rect width="1600" height="900" fill="#f8f6f1"/><rect width="1600" height="100" fill="#12251d"/><text x="55" y="62" font-family="Arial" font-weight="700" font-size="39" fill="#fff">Plan the complete lifestyle, not only the house</text><rect x="210" y="150" width="1180" height="660" fill="#b5d5ae" stroke="#12251d" stroke-width="6"/><rect x="210" y="690" width="1180" height="120" fill="#4b5056"/><rect x="520" y="280" width="570" height="370" fill="#e8e8e2" stroke="#12251d" stroke-width="5"/><line x1="760" y1="280" x2="760" y2="650" stroke="#12251d" stroke-width="4"/><line x1="520" y1="465" x2="1090" y2="465" stroke="#12251d" stroke-width="4"/><line x1="910" y1="465" x2="910" y2="650" stroke="#12251d" stroke-width="4"/><rect x="300" y="600" width="180" height="180" fill="#b4b9be" stroke="#12251d" stroke-width="4"/><text x="320" y="700" font-family="Arial" font-weight="700" font-size="26" fill="#12251d">Parking</text><rect x="260" y="230" width="210" height="270" fill="none" stroke="#d6b56d" stroke-width="8"/><text x="285" y="350" font-family="Arial" font-weight="700" font-size="26" fill="#12251d">Future</text><text x="275" y="390" font-family="Arial" font-weight="700" font-size="26" fill="#12251d">expansion</text><g fill="#457852"><circle cx="1140" cy="290" r="20"/><circle cx="1210" cy="290" r="20"/><circle cx="1280" cy="290" r="20"/><circle cx="1350" cy="290" r="20"/><circle cx="1140" cy="370" r="20"/><circle cx="1210" cy="370" r="20"/><circle cx="1280" cy="370" r="20"/><circle cx="1350" cy="370" r="20"/></g><text x="1180" y="600" font-family="Arial" font-weight="700" font-size="28" fill="#12251d">Garden</text><line x1="210" y1="130" x2="1390" y2="130" stroke="#d6b56d" stroke-width="6"/><text x="720" y="120" font-family="Arial" font-weight="700" font-size="26" fill="#12251d">Frontage</text><line x1="1420" y1="150" x2="1420" y2="810" stroke="#d6b56d" stroke-width="6"/><text x="1450" y="475" font-family="Arial" font-weight="700" font-size="26" fill="#12251d">Depth</text></svg>